<svg xmlns="http://www.w3.org/2000/svg" viewBox="0 0 120 120" fill="none">
  <g stroke="currentColor" stroke-width="1" opacity="0.2">
    <path d="M24 0V120M48 0V120M72 0V120M96 0V120" />
    <path d="M0 24H120M0 48H120M0 72H120M0 96H120" />
  </g>
  <g fill="currentColor" opacity="0.25">
    <circle cx="24" cy="24" r="1.5" />
    <circle cx="48" cy="24" r="1.5" />
    <circle cx="72" cy="24" r="1.5" />
    <circle cx="96" cy="24" r="1.5" />
    <circle cx="24" cy="48" r="1.5" />
    <circle cx="48" cy="48" r="1.5" />
    <circle cx="72" cy="48" r="1.5" />
    <circle cx="96" cy="48" r="1.5" />
    <circle cx="24" cy="72" r="1.5" />
    <circle cx="48" cy="72" r="1.5" />
    <circle cx="72" cy="72" r="1.5" />
    <circle cx="96" cy="72" r="1.5" />
    <circle cx="24" cy="96" r="1.5" />
    <circle cx="48" cy="96" r="1.5" />
    <circle cx="72" cy="96" r="1.5" />
    <circle cx="96" cy="96" r="1.5" />
  </g>
</svg>
